<svg width="113" height="125" viewBox="0 0 113 125" fill="none" xmlns="http://www.w3.org/2000/svg">
<path d="M56.3 0C46.05 0 37.75 8.31 37.75 18.56C37.75 20.07 37.93 21.54 38.28 22.95C38.62 24.37 39.13 25.73 39.78 27.01L54.22 55.89C55.08 57.61 57.53 57.61 58.38 55.89L72.82 27.01L73.06 26.53C73.6 25.4 74.03 24.2 74.33 22.95C74.67 21.55 74.85 20.07 74.85 18.56C74.85 8.31 66.54 0 56.29 0L56.3 0ZM56.3 27.81C52.78 27.81 49.71 25.84 48.15 22.94C48.12 22.88 48.09 22.82 48.06 22.77C47.73 22.14 47.48 21.46 47.31 20.74C47.14 20.04 47.05 19.31 47.05 18.55C47.05 13.43 51.19 9.29 56.31 9.29C61.43 9.29 65.57 13.43 65.57 18.55C65.57 19.3 65.48 20.04 65.31 20.74C65.16 21.37 64.95 21.96 64.68 22.52L64.56 22.76C64.53 22.82 64.5 22.88 64.47 22.93C62.91 25.83 59.84 27.8 56.32 27.8L56.3 27.81Z" fill="#EA4337"/>
<path d="M56.3 124.26C66.55 124.26 74.85 115.95 74.85 105.7C74.85 104.19 74.67 102.72 74.32 101.31C73.98 99.89 73.47 98.53 72.82 97.25L58.38 68.37C57.52 66.65 55.07 66.65 54.22 68.37L39.78 97.25L39.54 97.73C39 98.86 38.57 100.06 38.27 101.31C37.93 102.71 37.75 104.19 37.75 105.7C37.75 115.95 46.06 124.26 56.31 124.26H56.3ZM56.3 96.45C59.82 96.45 62.89 98.42 64.45 101.32C64.48 101.38 64.51 101.44 64.54 101.49C64.87 102.12 65.12 102.8 65.29 103.52C65.46 104.22 65.55 104.95 65.55 105.71C65.55 110.83 61.41 114.97 56.29 114.97C51.17 114.97 47.03 110.83 47.03 105.71C47.03 104.96 47.12 104.22 47.29 103.52C47.44 102.89 47.65 102.3 47.92 101.74L48.04 101.5C48.07 101.44 48.1 101.38 48.13 101.33C49.69 98.43 52.76 96.46 56.28 96.46L56.3 96.45Z" fill="#5AB34C"/>
<path d="M2.48997 31.07C-2.63003 39.94 0.409971 51.29 9.27997 56.41C10.59 57.17 11.95 57.75 13.34 58.15C14.74 58.57 16.18 58.8 17.61 58.88L49.85 60.82C51.77 60.94 52.99 58.82 51.93 57.21L34.14 30.26L33.84 29.81C33.13 28.77 32.31 27.81 31.38 26.92C30.33 25.92 29.15 25.03 27.84 24.27C18.96 19.15 7.61997 22.19 2.48997 31.06V31.07ZM26.57 44.97C24.81 48.02 21.57 49.69 18.28 49.6C18.21 49.6 18.15 49.6 18.08 49.6C17.37 49.56 16.65 49.44 15.95 49.24C15.26 49.04 14.58 48.75 13.92 48.37C9.48997 45.81 7.96997 40.15 10.53 35.72C13.09 31.29 18.75 29.77 23.18 32.33C23.83 32.71 24.42 33.15 24.94 33.65C25.41 34.09 25.82 34.57 26.17 35.09L26.32 35.31C26.36 35.36 26.39 35.42 26.42 35.48C28.15 38.28 28.32 41.92 26.56 44.98L26.57 44.97Z" fill="#0D7A93"/>
<path d="M110.11 93.2C115.23 84.33 112.19 72.98 103.32 67.86C102.01 67.1 100.65 66.52 99.26 66.12C97.86 65.7 96.42 65.47 94.99 65.39L62.75 63.45C60.83 63.33 59.61 65.45 60.67 67.06L78.46 94.01L78.76 94.46C79.47 95.5 80.29 96.46 81.22 97.35C82.27 98.35 83.45 99.24 84.76 100C93.64 105.12 104.98 102.08 110.11 93.21V93.2ZM86.02 79.29C87.78 76.24 91.02 74.57 94.31 74.66C94.38 74.66 94.44 74.66 94.51 74.66C95.22 74.7 95.94 74.82 96.64 75.02C97.33 75.22 98.01 75.51 98.67 75.89C103.1 78.45 104.62 84.11 102.06 88.54C99.5 92.97 93.84 94.49 89.41 91.93C88.76 91.55 88.17 91.11 87.65 90.61C87.18 90.17 86.77 89.69 86.42 89.17L86.27 88.95C86.23 88.9 86.2 88.84 86.17 88.78C84.44 85.98 84.27 82.34 86.03 79.28L86.02 79.29Z" fill="#A7CE4B"/>
<path d="M2.48995 93.2C7.60995 102.07 18.96 105.11 27.84 99.99C29.15 99.23 30.33 98.34 31.38 97.34C32.44 96.33 33.36 95.21 34.14 94.01L51.93 67.06C52.99 65.46 51.76 63.34 49.85 63.45L17.61 65.38L17.08 65.41C15.83 65.51 14.58 65.74 13.35 66.1C11.96 66.51 10.6 67.09 9.28995 67.84C0.409954 72.96 -2.63005 84.31 2.49995 93.19L2.48995 93.2ZM26.58 79.29C28.34 82.34 28.17 85.98 26.44 88.78C26.41 88.84 26.37 88.89 26.34 88.95C25.95 89.55 25.49 90.11 24.96 90.61C24.44 91.11 23.85 91.55 23.2 91.93C18.77 94.49 13.11 92.97 10.55 88.54C7.98995 84.11 9.50995 78.45 13.94 75.89C14.59 75.51 15.27 75.22 15.97 75.02C16.59 74.84 17.21 74.72 17.83 74.67L18.1 74.65C18.16 74.65 18.23 74.65 18.3 74.65C21.59 74.55 24.83 76.22 26.59 79.28L26.58 79.29Z" fill="#1EA597"/>
<path d="M110.1 31.06C104.98 22.19 93.63 19.15 84.75 24.27C83.44 25.03 82.26 25.92 81.21 26.92C80.15 27.93 79.23 29.05 78.45 30.25L60.66 57.2C59.6 58.8 60.83 60.92 62.74 60.81L94.98 58.88L95.51 58.85C96.76 58.75 98.01 58.52 99.24 58.16C100.63 57.75 101.99 57.17 103.3 56.42C112.18 51.3 115.22 39.95 110.09 31.07L110.1 31.06ZM86.02 44.97C84.26 41.92 84.43 38.28 86.16 35.48C86.19 35.42 86.23 35.37 86.26 35.31C86.65 34.71 87.11 34.15 87.64 33.65C88.16 33.15 88.75 32.71 89.4 32.33C93.83 29.77 99.49 31.29 102.05 35.72C104.61 40.15 103.09 45.81 98.66 48.37C98.01 48.75 97.33 49.04 96.63 49.24C96.01 49.42 95.39 49.54 94.77 49.59L94.5 49.61C94.44 49.61 94.37 49.61 94.3 49.61C91.01 49.71 87.77 48.04 86.01 44.98L86.02 44.97Z" fill="#FFAD34"/>
</svg>
