<svg width="163" height="46" viewBox="0 0 163 46" fill="none" xmlns="http://www.w3.org/2000/svg">
<g clip-path="url(#clip0_57_2184)">
<path d="M59.4232 34.3336C57.225 34.3336 55.3278 33.8235 53.7315 32.8033C52.1315 31.7831 50.9792 30.3923 50.2673 28.6272C49.5591 26.8657 49.3939 24.8988 49.7756 22.7337C50.1646 20.5392 51.0196 18.5649 52.348 16.8182C53.6765 15.0714 55.3205 13.6879 57.2801 12.6641C59.2397 11.6439 61.3167 11.1338 63.5112 11.1338C65.2433 11.1338 66.7992 11.4678 68.1827 12.132C69.5662 12.7962 70.6744 13.7503 71.5075 14.9833L67.5699 18.3704C67.0561 17.5961 66.3772 17.0163 65.5332 16.631C64.6892 16.2457 63.724 16.0512 62.6415 16.0512C61.3718 16.0512 60.2012 16.3374 59.1259 16.9099C58.0507 17.4824 57.1553 18.264 56.4397 19.2512C55.7241 20.242 55.2471 21.4016 55.0159 22.73C54.7884 24.0291 54.8544 25.1814 55.2177 26.1869C55.581 27.1924 56.2012 27.9813 57.0746 28.5538C57.948 29.1263 59.0195 29.4125 60.2856 29.4125C61.3681 29.4125 62.3993 29.218 63.3791 28.8327C64.3589 28.4474 65.2433 27.8676 66.0286 27.0933L68.7735 30.4804C67.5038 31.7171 66.0616 32.6675 64.4433 33.3354C62.825 33.9996 61.1516 34.3336 59.4195 34.3336H59.4232Z" fill="#0D7A93"/>
<path d="M70.8176 33.8675L74.7441 11.5962H79.8486L75.9221 33.8675H70.8176ZM78.1055 21.4823L76.4982 20.6016C76.9936 17.787 78.0248 15.5044 79.5844 13.7576C81.144 12.0109 83.1954 11.1375 85.7311 11.1375C86.8431 11.1375 87.8155 11.3393 88.6412 11.7393C89.4669 12.143 90.1861 12.7925 90.8026 13.6879L86.8577 17.1227C86.5311 16.6897 86.1385 16.3815 85.6761 16.1943C85.2137 16.0072 84.6596 15.9154 84.0101 15.9154C82.5862 15.9154 81.3312 16.3631 80.2486 17.2622C79.1624 18.1613 78.4505 19.5668 78.1129 21.4823H78.1055Z" fill="#0D7A93"/>
<path d="M133.019 31.0859L148.398 14.3815H154.384L139.004 31.0859H133.019ZM132.527 33.8675L133.019 31.0822L137.984 29.2254H151.485L150.666 33.8638H132.527V33.8675ZM136.468 16.2383L137.287 11.5999H154.872L154.38 14.3852L149.411 16.242H136.468V16.2383Z" fill="#0D7A93"/>
<path d="M157.635 11.2696V11.0017H159.866V11.2696H157.635ZM158.604 13.7503V11.0824H158.897V13.7503H158.604Z" fill="#0D7A93"/>
<path d="M160.358 13.7503V11.0054H160.571L161.756 12.9503H161.606L162.791 11.0054H163.004V13.7503H162.71V11.5155L162.776 11.5338L161.785 13.1595H161.576L160.585 11.5338L160.651 11.5155V13.7503H160.358Z" fill="#0D7A93"/>
<path d="M120.424 34.2088C115.738 34.2088 112.868 30.8914 110.891 27.9997L110.116 26.8657L108.96 28.018C105.731 31.2327 102.098 34.2088 97.4118 34.2088C91.1219 34.2088 86.9055 29.0896 88.0137 22.7997C89.1219 16.5099 95.1439 11.3907 101.434 11.3907C106.12 11.3907 108.703 14.3668 110.799 17.5814L111.547 18.7337L112.722 17.5998C115.72 14.7081 119.76 11.3907 124.443 11.3907C130.732 11.3907 134.949 16.5099 133.841 22.7997C132.732 29.0896 126.711 34.2088 120.421 34.2088H120.424ZM123.573 16.3484C120.681 16.3484 117.617 19.0677 114.733 22.0071L113.958 22.7961L114.454 23.585C116.3 26.5245 118.406 29.2437 121.298 29.2437C124.854 29.2437 128.259 26.352 128.883 22.7961C129.51 19.2401 127.125 16.3484 123.569 16.3484H123.573ZM100.564 16.3484C97.0081 16.3484 93.6063 19.2401 92.9788 22.7961C92.3513 26.352 94.7366 29.2437 98.2925 29.2437C101.269 29.2437 103.863 26.785 106.949 23.5704L107.698 22.7924L107.224 22.0144C105.272 18.7998 103.54 16.3448 100.568 16.3448L100.564 16.3484Z" fill="#0D7A93"/>
<path style="mix-blend-mode:multiply" d="M110.032 16.4475C110.568 17.1888 111.063 17.9631 111.54 18.7447L107.694 22.7961C107.085 21.7722 106.494 20.7998 105.903 19.9557L110.035 16.4438L110.032 16.4475Z" fill="url(#paint0_linear_57_2184)"/>
<path style="mix-blend-mode:multiply" d="M116.931 26.9538L112.806 30.462C111.79 29.3391 110.92 28.0841 110.135 26.8474L113.962 22.7961C114.846 24.2529 115.819 25.7612 116.927 26.9575L116.931 26.9538Z" fill="url(#paint1_linear_57_2184)"/>
<path d="M20.6603 0C16.8989 0 13.8531 3.04951 13.8531 6.81093C13.8531 7.36505 13.9191 7.9045 14.0476 8.42192C14.1723 8.94302 14.3595 9.4421 14.598 9.91181L19.897 20.5099C20.2126 21.141 21.1117 21.141 21.4236 20.5099L26.7226 9.91181L26.8107 9.73567C27.0089 9.321 27.1667 8.88063 27.2768 8.42192C27.4015 7.90817 27.4676 7.36505 27.4676 6.81093C27.4676 3.04951 24.4181 0 20.6567 0L20.6603 0ZM20.6603 10.2054C19.3686 10.2054 18.242 9.48246 17.6695 8.41825C17.6585 8.39624 17.6475 8.37422 17.6365 8.35587C17.5154 8.12468 17.4237 7.87514 17.3613 7.61092C17.2989 7.35405 17.2659 7.08616 17.2659 6.80726C17.2659 4.92838 18.7851 3.40914 20.664 3.40914C22.5429 3.40914 24.0621 4.92838 24.0621 6.80726C24.0621 7.08249 24.0291 7.35405 23.9667 7.61092C23.9117 7.84211 23.8346 8.05863 23.7355 8.26413L23.6915 8.3522C23.6805 8.37422 23.6695 8.39624 23.6585 8.41458C23.086 9.47879 21.9594 10.2017 20.6677 10.2017L20.6603 10.2054Z" fill="#EA4337"/>
<path d="M20.6603 45.5995C24.4217 45.5995 27.4676 42.55 27.4676 38.7885C27.4676 38.2344 27.4015 37.695 27.2731 37.1776C27.1483 36.6565 26.9612 36.1574 26.7226 35.6877L21.4236 25.0896C21.108 24.4584 20.209 24.4584 19.897 25.0896L14.598 35.6877L14.5099 35.8638C14.3118 36.2785 14.154 36.7188 14.0439 37.1776C13.9191 37.6913 13.8531 38.2344 13.8531 38.7885C13.8531 42.55 16.9026 45.5995 20.664 45.5995H20.6603ZM20.6603 35.3941C21.952 35.3941 23.0786 36.117 23.6511 37.1812C23.6621 37.2032 23.6731 37.2253 23.6841 37.2436C23.8052 37.4748 23.897 37.7243 23.9594 37.9886C24.0218 38.2454 24.0548 38.5133 24.0548 38.7922C24.0548 40.6711 22.5355 42.1903 20.6567 42.1903C18.7778 42.1903 17.2585 40.6711 17.2585 38.7922C17.2585 38.517 17.2916 38.2454 17.3539 37.9886C17.409 37.7574 17.486 37.5409 17.5851 37.3354L17.6292 37.2473C17.6402 37.2253 17.6512 37.2032 17.6622 37.1849C18.2347 36.1207 19.3613 35.3978 20.653 35.3978L20.6603 35.3941Z" fill="#5AB34C"/>
<path d="M0.913775 11.4017C-0.965103 14.6567 0.150481 18.8218 3.40549 20.7007C3.88622 20.9796 4.3853 21.1924 4.89538 21.3392C5.40914 21.4933 5.93757 21.5777 6.46234 21.6071L18.2934 22.319C18.998 22.3631 19.4457 21.5851 19.0567 20.9943L12.5283 11.1045L12.4182 10.9393C12.1577 10.5577 11.8568 10.2054 11.5155 9.87879C11.1302 9.51182 10.6972 9.18522 10.2164 8.90632C6.95774 7.02744 2.79632 8.14303 0.913775 11.398V11.4017ZM9.75037 16.5026C9.10451 17.6218 7.91553 18.2347 6.70821 18.2016C6.68252 18.2016 6.6605 18.2016 6.63481 18.2016C6.37426 18.1869 6.11005 18.1429 5.85317 18.0695C5.59996 17.9961 5.35042 17.8897 5.10822 17.7503C3.48255 16.8108 2.92476 14.7338 3.8642 13.1081C4.80364 11.4824 6.88068 10.9246 8.50635 11.8641C8.74488 12.0035 8.96139 12.165 9.15222 12.3485C9.32469 12.51 9.47515 12.6861 9.60359 12.8769L9.65863 12.9577C9.67331 12.976 9.68432 12.998 9.69533 13.02C10.3302 14.0475 10.3926 15.3833 9.7467 16.5062L9.75037 16.5026Z" fill="#0D7A93"/>
<path d="M40.4069 34.2015C42.2858 30.9464 41.1702 26.7814 37.9152 24.9025C37.4345 24.6236 36.9354 24.4107 36.4253 24.264C35.9116 24.1098 35.3831 24.0254 34.8584 23.9961L23.0273 23.2841C22.3227 23.2401 21.875 24.0181 22.264 24.6089L28.7924 34.4987L28.9025 34.6638C29.163 35.0455 29.4639 35.3978 29.8052 35.7244C30.1905 36.0913 30.6235 36.4179 31.1043 36.6968C34.3629 38.5757 38.5244 37.4601 40.4069 34.2051V34.2015ZM31.5666 29.0969C32.2125 27.9777 33.4015 27.3648 34.6088 27.3979C34.6345 27.3979 34.6565 27.3979 34.6822 27.3979C34.9428 27.4125 35.207 27.4566 35.4638 27.53C35.7171 27.6034 35.9666 27.7098 36.2088 27.8492C37.8345 28.7887 38.3923 30.8657 37.4528 32.4914C36.5134 34.1171 34.4363 34.6748 32.8107 33.7354C32.5721 33.596 32.3556 33.4345 32.1648 33.251C31.9923 33.0895 31.8419 32.9134 31.7134 32.7226L31.6584 32.6418C31.6437 32.6235 31.6327 32.6015 31.6217 32.5795C30.9868 31.5519 30.9245 30.2162 31.5703 29.0933L31.5666 29.0969Z" fill="#A7CE4B"/>
<path d="M0.913757 34.2014C2.79264 37.4565 6.95773 38.572 10.2164 36.6932C10.6971 36.4143 11.1302 36.0877 11.5155 35.7207C11.9045 35.3501 12.2421 34.9391 12.5283 34.4987L19.0567 24.6089C19.4457 24.0217 18.9943 23.2438 18.2934 23.2841L6.46232 23.9924L6.26783 24.0034C5.80911 24.0401 5.3504 24.1245 4.89903 24.2566C4.38895 24.4071 3.88987 24.6199 3.40914 24.8951C0.150463 26.774 -0.965121 30.9391 0.917427 34.1978L0.913757 34.2014ZM9.75402 29.0969C10.3999 30.2162 10.3375 31.5519 9.70265 32.5794C9.69164 32.6015 9.67696 32.6198 9.66595 32.6418C9.52283 32.862 9.35403 33.0675 9.15954 33.251C8.96871 33.4345 8.7522 33.596 8.51367 33.7354C6.888 34.6748 4.81096 34.117 3.87152 32.4914C2.93208 30.8657 3.48987 28.7887 5.11554 27.8492C5.35407 27.7098 5.60361 27.6034 5.86049 27.53C6.08801 27.4639 6.31553 27.4199 6.54305 27.4015L6.64213 27.3942C6.66415 27.3942 6.68984 27.3942 6.71553 27.3942C7.92285 27.3575 9.11183 27.9703 9.75769 29.0932L9.75402 29.0969Z" fill="#1EA597"/>
<path d="M40.4032 11.398C38.5244 8.14303 34.3593 7.02744 31.1006 8.90632C30.6199 9.18522 30.1868 9.51182 29.8015 9.87879C29.4125 10.2494 29.0749 10.6604 28.7887 11.1008L22.2603 20.9906C21.8713 21.5777 22.3227 22.3557 23.0236 22.3153L34.8547 21.6071L35.0492 21.5961C35.5079 21.5594 35.9666 21.475 36.418 21.3429C36.928 21.1924 37.4271 20.9796 37.9079 20.7044C41.1665 18.8255 42.2821 14.6604 40.3996 11.4017L40.4032 11.398ZM31.5666 16.5026C30.9208 15.3833 30.9832 14.0475 31.618 13.02C31.629 12.998 31.6437 12.9797 31.6547 12.9577C31.7978 12.7375 31.9666 12.532 32.1611 12.3485C32.352 12.165 32.5685 12.0035 32.807 11.8641C34.4327 10.9246 36.5097 11.4824 37.4491 13.1081C38.3886 14.7338 37.8308 16.8108 36.2051 17.7503C35.9666 17.8897 35.717 17.9961 35.4602 18.0695C35.2327 18.1356 35.0051 18.1796 34.7776 18.198L34.6785 18.2053C34.6565 18.2053 34.6308 18.2053 34.6051 18.2053C33.3978 18.242 32.2088 17.6292 31.563 16.5062L31.5666 16.5026Z" fill="#FFAD34"/>
</g>
<defs>
<linearGradient id="paint0_linear_57_2184" x1="110.006" y1="16.7191" x2="118.656" y2="27.4309" gradientUnits="userSpaceOnUse">
<stop offset="0.11" stop-color="white"/>
<stop offset="0.61" stop-color="#878787"/>
<stop offset="0.95" stop-color="white"/>
</linearGradient>
<linearGradient id="paint1_linear_57_2184" x1="110.035" y1="16.6971" x2="118.685" y2="27.4052" gradientUnits="userSpaceOnUse">
<stop offset="0.11" stop-color="white"/>
<stop offset="0.61" stop-color="#878787"/>
<stop offset="0.95" stop-color="white"/>
</linearGradient>
<clipPath id="clip0_57_2184">
<rect width="163" height="45.5995" fill="white"/>
</clipPath>
</defs>
</svg>
